<?xml version="1.0" standalone="no"?>
<!DOCTYPE svg PUBLIC "-//W3C//DTD SVG 20010904//EN"
 "http://www.w3.org/TR/2001/REC-SVG-20010904/DTD/svg10.dtd">
<svg version="1.0" xmlns="http://www.w3.org/2000/svg"
 width="400.000000pt" height="400.000000pt" viewBox="0 0 400.000000 400.000000"
 preserveAspectRatio="xMidYMid meet">
<metadata>
Created by potrace 1.14, written by Peter Selinger 2001-2017
</metadata>
<g transform="translate(0.000000,400.000000) scale(0.100000,-0.100000)"
fill="#000000" stroke="none">
<path d="M650 3271 c-72 -26 -133 -89 -154 -161 -13 -44 -16 -111 -16 -376 0
-183 4 -334 10 -348 9 -25 10 -25 51 -11 23 8 72 18 108 21 l66 6 -3 312 c-2
171 0 321 2 332 7 25 33 34 64 23 l22 -8 0 -329 0 -329 93 -7 c50 -4 101 -8
112 -9 20 -2 20 5 23 336 1 201 -2 354 -8 376 -17 65 -62 124 -119 154 -70 39
-173 46 -251 18z"/>
<path d="M1100 2825 c0 -250 1 -455 3 -455 1 0 45 -9 97 -20 142 -29 130 -37
130 87 0 59 4 103 8 97 5 -5 26 -55 47 -111 21 -55 41 -106 45 -113 7 -11 249
-74 256 -67 2 2 -43 122 -101 268 -58 145 -105 269 -105 275 0 7 52 117 115
245 63 129 115 238 115 242 0 4 -52 6 -116 5 l-116 -3 -72 -152 -71 -153 -5
153 -5 152 -112 3 -113 3 0 -456z"/>
<path d="M1742 2753 l3 -528 70 -17 c51 -12 118 -17 248 -17 l177 -1 0 110 0
110 -135 0 -135 0 0 115 0 115 110 0 111 0 -3 103 -3 102 -107 3 -108 3 0 104
0 105 135 0 135 0 0 110 0 110 -250 0 -250 0 2 -527z"/>
<path d="M2446 3253 c-10 -51 -166 -1035 -166 -1049 0 -11 21 -14 104 -14 117
0 109 -6 121 85 13 112 8 105 84 105 l68 0 14 -92 14 -93 113 -3 c102 -2 112
-1 112 15 0 17 -156 1005 -165 1051 -5 22 -8 22 -149 22 l-144 0 -6 -27z m163
-552 c10 -61 15 -113 13 -116 -3 -3 -21 -5 -40 -5 -34 0 -35 0 -28 38 3 20 11
74 17 120 7 45 14 80 16 78 2 -2 12 -54 22 -115z"/>
<path d="M2950 2735 l0 -546 113 3 112 3 3 218 2 217 55 0 55 0 0 -220 c0
-193 2 -220 16 -220 26 0 132 110 160 165 51 106 54 131 54 543 l0 382 -115 0
-115 0 0 -220 0 -220 -55 0 -55 0 -2 218 -3 217 -112 3 -113 3 0 -546z"/>
<path d="M3571 2265 c-113 -200 -356 -286 -765 -272 -278 10 -477 39 -1121
167 -651 129 -846 157 -1038 147 -238 -12 -332 -80 -330 -242 0 -67 32 -186
67 -252 l13 -25 30 54 c130 229 454 313 993 257 223 -23 431 -59 1050 -183
494 -98 581 -110 810 -111 218 0 264 9 333 66 55 45 71 82 71 164 -1 69 -20
147 -61 244 l-19 44 -33 -58z"/>
<path d="M713 1920 c-67 -10 -137 -51 -168 -98 -53 -81 -55 -95 -55 -496 0
-420 4 -447 67 -517 52 -58 103 -80 193 -86 141 -10 234 37 286 144 26 51 28
68 32 200 l5 143 -112 0 -111 0 0 -113 c0 -135 -10 -157 -70 -157 -29 0 -42 5
-50 19 -6 13 -10 146 -10 363 0 378 2 388 59 388 56 0 66 -18 69 -129 l4 -101
110 0 110 0 -5 118 c-3 64 -11 135 -18 157 -19 58 -103 138 -159 153 -68 17
-119 21 -177 12z"/>
<path d="M1064 1893 c52 -180 192 -654 207 -700 l20 -63 -55 -182 c-31 -101
-59 -191 -62 -200 -5 -16 5 -18 110 -18 l114 0 21 63 c30 91 331 1102 331
1111 0 3 -50 5 -112 4 l-112 -3 -53 -199 c-28 -109 -54 -201 -57 -204 -7 -7
-8 -4 -56 183 -23 88 -46 175 -52 193 l-10 32 -119 0 c-110 0 -120 -2 -115
-17z"/>
<path d="M1800 1320 l0 -590 495 0 495 0 0 514 0 515 -57 11 c-57 11 -121 26
-155 36 -17 5 -18 -20 -18 -425 l0 -431 -75 0 -75 0 0 448 0 448 -101 23 c-56
12 -108 25 -115 28 -12 4 -14 -74 -14 -471 l0 -476 -75 0 -75 0 0 480 0 480
-115 0 -115 0 0 -590z"/>
<path d="M3468 1735 c-45 -16 -170 -35 -236 -35 l-47 0 -30 -115 c-16 -63 -33
-115 -37 -115 -4 0 -8 54 -8 120 0 89 -3 120 -12 120 -26 1 -163 20 -180 26
-17 5 -18 -19 -18 -500 l0 -506 114 0 113 0 16 58 c9 31 44 161 78 287 33 127
65 234 70 239 5 6 9 -113 9 -287 l0 -297 105 0 105 0 0 510 c0 281 -1 510 -2
509 -2 0 -20 -7 -40 -14z"/>
</g>
</svg>
